<?xml version="1.0" standalone="no"?>
<!DOCTYPE svg PUBLIC "-//W3C//DTD SVG 20010904//EN"
 "http://www.w3.org/TR/2001/REC-SVG-20010904/DTD/svg10.dtd">
<svg version="1.0" xmlns="http://www.w3.org/2000/svg"
 width="120.000000pt" height="120.000000pt" viewBox="0 0 120.000000 120.000000"
 preserveAspectRatio="xMidYMid meet">
<metadata>
Created by potrace 1.11, written by Peter Selinger 2001-2013
</metadata>
<g transform="translate(0.000000,120.000000) scale(0.100000,-0.100000)"
fill="#000000" stroke="none">
<path d="M567 1123 c-2 -1 -12 -4 -23 -6 -66 -11 -144 -81 -174 -155 -8 -21
-13 -85 -13 -185 -1 -83 -5 -155 -10 -158 -5 -4 -22 -5 -37 -2 -17 2 -32 -1
-37 -9 -10 -17 -13 -498 -3 -518 7 -13 53 -15 327 -15 175 0 323 4 329 7 11 8
18 497 7 524 -3 7 -17 11 -32 9 -53 -6 -56 2 -57 152 -1 161 -7 193 -45 250
-35 50 -76 81 -127 95 -36 11 -99 17 -105 11z m90 -114 c25 -9 72 -52 74 -68
0 -3 2 -15 4 -26 4 -19 7 -186 6 -265 l-1 -35 -140 0 -140 0 -1 30 c-3 135 2
279 12 298 35 66 113 94 186 66z"/>
</g>
</svg>
